# xmcd CD database file
#
# Track frame offsets:
#	150
#	37614
#	70253
#	122767
#	142940
#	187144
#	221655
#	251344
#	284316
#
# Disc length: 4037 seconds
#
# Revision: 2
# Processed by: cddbd v1.5.2PL0 Copyright (c) Steve Scherf et al.
# Submitted via: CDex 1.50
#
DISCID=810fc309
DTITLE=Riccardo Villalobos | Max Loderbauer - Re: Ecm [CD1]
DYEAR=2011
DGENRE=Re: Ecm
TTITLE0=Reblop | Christian Wallumrød Ensemble - Fabula Suite Lugano ECM 2118
TTITLE1=Recat | ECM 2005 Christian Wallumrød Ensemble - The Zoo is Far ECM 2005
TTITLE2=Resvete | Alexander Knaifel - Svete Tikhiy ECM 1763
TTITLE3=Retimeless | John Abercrombie - Timeless ECM 2118
TTITLE4=Reemergence | Miroslav Vitous - Emergence ECM 1312
TTITLE5=Reblazhenstva | Alexander Knaife - Blazhenstva ECM 1957
TTITLE6=Reannounce | Louis Scalvis - L'imperfait des langues ECM 1954
TTITLE7=Recurrence | Wolfert Brederode Quartet - Currents ECM 2004
TTITLE8=Requote | Christian Wallumrød Ensemble - Fabula Suite Lugano ECM 2118
EXTD=YEAR: 2011
EXTT0=
EXTT1=
EXTT2=
EXTT3=
EXTT4=
EXTT5=
EXTT6=
EXTT7=
EXTT8=
PLAYORDER=
